# xmcd
#
# Track frame offsets: 
#        150
#        16597
#        30305
#        45752
#        59875
#        74512
#        91540
#        106015
#        115830
#        139375
#        154440
#
# Disc length: 2266 seconds
#
# Revision: 0
# Processed by: cddbd v1.5.2PL0 Copyright (c) Steve Scherf et al.
# Submitted via: ExactAudioCopyFreeDBPlugin 1.0
#
DISCID=8508d80b
DTITLE=Deacon Jones - Makin' Blues History
DYEAR=1994
DGENRE=Blues
TTITLE0=Singin' The Blues
TTITLE1=Somethin's Wrong
TTITLE2=I Should Have Known
TTITLE3=Bad Whiskey
TTITLE4=Shaken
TTITLE5=Sho Ain't Nothin' Nice
TTITLE6=Half That Woman
TTITLE7=If You Only Knew
TTITLE8=I'll Always Love You
TTITLE9=Your Sweet Lovin'
TTITLE10=People Don't Care
EXTD=
EXTT0=
EXTT1=
EXTT2=
EXTT3=
EXTT4=
EXTT5=
EXTT6=
EXTT7=
EXTT8=
EXTT9=
EXTT10=
PLAYORDER=
